####
#
# OBJ File Generated by Meshlab
#
####
# Object robotiq_85_knuckle_link.obj
#
# Vertices: 32
# Faces: 60
#
####
vn -0.807492 -0.074485 -0.585157
v -0.009978 -0.032995 -0.005095
vn -0.437676 0.117099 -0.891475
v -0.008102 -0.026879 -0.004500
vn 0.009880 0.007559 -0.999923
v 0.006444 -0.024854 -0.004489
vn -0.500298 -0.572299 0.649751
v -0.005723 -0.005471 0.005500
vn -0.792564 0.527817 0.305370
v -0.006947 0.004755 0.005592
vn 0.791440 0.031570 0.610431
v 0.007591 0.000394 0.005579
vn 0.483373 0.317074 -0.815975
v 0.006172 0.004032 -0.005500
vn -0.775177 -0.338262 -0.533554
v -0.006845 -0.003002 -0.005500
vn 0.890190 -0.313000 -0.331049
v 0.007433 -0.002222 -0.005558
vn -0.529642 0.345763 -0.774550
v -0.006289 0.004114 -0.005505
vn -0.039440 0.931548 -0.361473
v 0.000974 0.008004 -0.005500
vn 0.350250 0.689291 0.634194
v 0.002821 0.007278 0.005499
vn -0.234126 -0.645666 -0.726842
v -0.006350 -0.037324 -0.004608
vn 0.507761 0.486224 -0.711172
v 0.005440 -0.017518 -0.004500
vn 0.199258 -0.913644 -0.354332
v 0.006872 -0.038618 -0.004500
vn 0.663928 0.060204 -0.745369
v 0.003027 -0.012004 -0.004509
vn 0.606541 -0.274189 -0.746276
v 0.011479 -0.035808 -0.004500
vn 0.357005 -0.178083 -0.916970
v 0.002341 -0.008457 -0.005500
vn 0.573822 0.295191 -0.763931
v 0.012322 -0.021842 -0.004488
vn 0.000000 0.000000 0.000000
v 0.007626 -0.024780 0.011090
vn 0.911881 0.410323 -0.010375
v 0.003338 -0.014766 0.004500
vn 0.790790 0.337221 0.510816
v 0.013116 -0.023033 0.004577
vn -0.023080 -0.816162 0.577362
v 0.005059 -0.038723 0.004500
vn 0.413508 -0.506662 0.756508
v 0.009918 -0.037780 0.004500
vn -0.586456 -0.467190 0.661666
v -0.008547 -0.035987 0.004740
vn -0.866822 0.142266 0.477892
v -0.007952 -0.026258 0.004493
vn -0.555544 -0.478064 0.680313
v -0.005274 -0.005670 0.004500
vn -0.806448 0.133355 -0.576072
v -0.005305 -0.005912 -0.004497
vn -0.792535 -0.595441 -0.131678
v -0.005479 -0.005409 0.000000
vn 0.829756 -0.502662 0.242560
v 0.003412 -0.007298 0.004499
vn -0.005184 -0.001380 0.999986
v 0.007980 -0.024455 0.004499
vn 0.003443 0.004552 0.999984
v 0.004537 -0.025467 0.004514
# 32 vertices, 0 vertices normals

f 1//1 2//2 3//3
f 1//1 3//3 13//13
f 6//6 12//12 4//4
f 12//12 5//5 4//4
f 4//4 30//30 6//6
f 7//7 18//18 8//8
f 7//7 8//8 10//10
f 10//10 11//11 7//7
f 18//18 7//7 9//9
f 13//13 3//3 17//17
f 2//2 16//16 14//14
f 2//2 14//14 3//3
f 2//2 28//28 16//16
f 15//15 13//13 17//17
f 17//17 3//3 19//19
f 19//19 3//3 14//14
f 22//22 19//19 14//14
f 22//22 14//14 21//21
f 21//21 14//14 16//16
f 21//21 16//16 30//30
f 22//22 17//17 19//19
f 23//23 13//13 15//15
f 23//23 15//15 24//24
f 24//24 15//15 17//17
f 24//24 17//17 22//22
f 25//25 13//13 23//23
f 26//26 2//2 1//1
f 25//25 1//1 13//13
f 2//2 26//26 28//28
f 28//28 26//26 27//27
f 29//29 4//4 8//8
f 8//8 18//18 29//29
f 29//29 18//18 28//28
f 28//28 18//18 16//16
f 4//4 29//29 27//27
f 4//4 27//27 30//30
f 30//30 18//18 9//9
f 30//30 9//9 6//6
f 6//6 9//9 7//7
f 6//6 7//7 12//12
f 12//12 7//7 11//11
f 12//12 11//11 5//5
f 5//5 11//11 10//10
f 5//5 10//10 8//8
f 5//5 8//8 4//4
f 30//30 16//16 18//18
f 25//25 32//32 26//26
f 20//20 31//31 32//32
f 20//20 32//32 31//31
f 26//26 32//32 27//27
f 27//27 32//32 31//31
f 32//32 25//25 23//23
f 27//27 31//31 30//30
f 22//22 21//21 31//31
f 31//31 21//21 30//30
f 26//26 1//1 25//25
f 29//29 28//28 27//27
f 23//23 24//24 32//32
f 24//24 31//31 32//32
f 22//22 31//31 24//24
# 60 faces, 0 coords texture

# End of File
