####
#
# OBJ File Generated by Meshlab
#
####
# Object robotiq_arg2f_85_inner_knuckle.obj
#
# Vertices: 12
# Faces: 20
#
####
vn 0.700754 -0.483602 0.524475
v 16.946596 18.511652 30.913000
vn -0.860756 0.449682 -0.238505
v -16.278158 31.323717 28.619410
vn -0.370991 0.876579 0.306553
v -12.979692 44.586975 43.069794
vn 0.805193 0.121095 -0.580518
v 19.500000 2.461286 -6.346195
vn -0.599980 0.076180 -0.796380
v -20.419699 1.745981 -7.171085
vn 0.641755 0.712631 -0.283385
v 14.441756 41.409164 39.247589
vn -0.555364 -0.831603 -0.002714
v -19.500000 -6.639451 1.358257
vn 0.333275 -0.939555 -0.078517
v 19.500000 -7.397632 0.433822
vn 0.845789 -0.373679 0.380795
v 19.500000 0.131573 9.392535
vn 0.363975 -0.008482 0.931370
v 12.966875 36.280640 51.497887
vn -0.493296 -0.637072 0.592282
v -19.500000 0.131513 9.392570
vn -0.729888 -0.084548 0.678318
v -11.803399 34.511692 49.619595
# 12 vertices, 0 vertices normals

f 1//1 10//10 11//11
f 5//5 11//11 2//2
f 12//12 3//3 2//2
f 4//4 6//6 9//9
f 1//1 9//9 6//6
f 6//6 10//10 1//1
f 12//12 2//2 11//11
f 11//11 9//9 1//1
f 2//2 6//6 5//5
f 6//6 2//2 3//3
f 12//12 11//11 10//10
f 7//7 8//8 11//11
f 9//9 11//11 8//8
f 4//4 8//8 5//5
f 5//5 7//7 11//11
f 9//9 8//8 4//4
f 7//7 5//5 8//8
f 4//4 5//5 6//6
f 3//3 10//10 6//6
f 3//3 12//12 10//10
# 20 faces, 0 coords texture

# End of File
