####
#
# OBJ File Generated by Meshlab
#
####
# Object robotiq_85_inner_knuckle_link.obj
#
# Vertices: 49
# Faces: 104
#
####
vn 0.099289 -0.753224 -0.650227
v 0.040572 -0.039361 0.007500
vn 0.424565 -0.042940 -0.904379
v 0.043156 -0.036472 0.007487
vn -0.000286 0.000049 1.000000
v 0.013666 -0.011972 -0.012000
vn 0.444999 0.688189 -0.573037
v 0.025221 -0.014066 -0.017002
vn -0.635330 -0.405748 0.657057
v 0.017464 -0.022937 -0.011964
vn 0.727798 -0.332696 -0.599687
v 0.019844 -0.018961 -0.017006
vn -0.495364 -0.724702 0.478979
v 0.021947 -0.027143 0.017001
vn 0.878812 0.375784 -0.294067
v 0.033659 -0.020931 0.006976
vn 0.800460 -0.127191 0.585736
v 0.023031 -0.012159 -0.012001
vn 0.704898 0.331697 0.626974
v 0.034730 -0.022370 0.012005
vn 0.681825 0.390207 -0.618751
v 0.031526 -0.019574 -0.016606
vn 0.418585 0.762203 -0.493795
v 0.002640 0.005656 0.012000
vn 0.744406 0.417906 0.520782
v 0.031551 -0.019596 0.016980
vn 0.336991 0.803283 0.491094
v 0.000441 0.007232 -0.011999
vn 0.007891 0.959381 -0.282003
v 0.028048 -0.016534 0.009036
vn 0.377649 0.611762 -0.695074
v 0.024021 -0.013020 0.012024
vn 0.553795 0.467062 0.689322
v 0.013499 -0.003826 0.017076
vn 0.308331 0.193899 -0.931308
v 0.011069 -0.001567 -0.019012
vn 0.753274 0.299073 -0.585776
v 0.034022 -0.021754 -0.013582
vn -0.004226 0.778490 0.627643
v 0.001782 0.006306 0.019500
vn 0.503179 0.282220 0.816800
v 0.009896 -0.000674 0.019495
vn 0.160561 0.954116 0.252750
v 0.027129 -0.015738 -0.009995
vn 0.722079 0.550514 0.418971
v 0.033740 -0.021504 -0.007459
vn -0.028192 -0.936988 -0.348221
v 0.040897 -0.043652 0.011852
vn 0.920179 0.253469 0.298369
v 0.050600 -0.037582 0.011882
vn -0.451732 -0.800700 -0.393468
v 0.025466 -0.030311 0.007047
vn -0.208232 -0.928347 0.307915
v 0.026481 -0.031109 -0.007492
vn -0.457835 -0.334080 0.823880
v 0.039439 -0.040336 -0.007464
vn 0.654160 0.414607 0.632594
v 0.045421 -0.033934 -0.007386
vn 0.717723 0.269522 -0.642053
v 0.047030 -0.033124 -0.011998
vn 0.772782 -0.629531 0.080621
v 0.045860 -0.040085 -0.011053
vn -0.212207 -0.895511 -0.391188
v 0.040657 -0.043038 -0.012000
vn -0.335131 -0.696236 -0.634778
v 0.027304 -0.031823 -0.012001
vn -0.147203 -0.603766 -0.783452
v 0.023988 -0.028923 -0.016978
vn -0.393946 -0.640562 -0.659156
v 0.005935 -0.013152 -0.017000
vn -0.342800 -0.637293 -0.690178
v 0.002471 -0.010126 -0.019476
vn -0.746410 -0.040875 -0.664230
v -0.006033 -0.002244 -0.019505
vn -0.304512 0.801093 -0.515289
v -0.000981 0.006708 -0.019526
vn -0.781217 -0.557324 0.281229
v -0.005479 -0.003158 -0.011999
vn -0.708600 0.424529 0.563614
v -0.004668 0.003895 -0.012008
vn -0.916963 -0.370019 0.149216
v 0.020145 -0.025566 -0.009496
vn -0.646340 -0.210783 -0.733359
v 0.017649 -0.023385 0.011953
vn -0.930797 -0.309109 -0.195110
v 0.020149 -0.025569 0.008446
vn -0.721501 -0.473694 -0.505024
v -0.005034 -0.003567 0.012000
vn -0.641907 0.692672 -0.328877
v -0.005307 0.004114 0.012000
vn -0.834247 0.195974 0.515389
v -0.004860 0.002601 0.019500
vn -0.396522 -0.331186 0.856205
v -0.002379 -0.006050 0.019620
vn -0.237580 -0.566569 0.789022
v 0.005513 -0.012783 0.017116
vn -0.079905 -0.583201 0.808389
v 0.026928 -0.031488 0.012008
# 49 vertices, 0 vertices normals

f 28//28 1//1 2//2
f 28//28 2//2 29//29
f 29//29 2//2 31//31
f 31//31 2//2 1//1
f 31//31 1//1 28//28
f 6//6 3//3 14//14
f 9//9 6//6 4//4
f 9//9 4//4 22//22
f 5//5 22//22 4//4
f 6//6 9//9 5//5
f 8//8 13//13 10//10
f 9//9 22//22 4//4
f 4//4 22//22 11//11
f 11//11 22//22 19//19
f 22//22 23//23 19//19
f 21//21 17//17 12//12
f 8//8 15//15 13//13
f 13//13 15//15 16//16
f 13//13 16//16 17//17
f 17//17 16//16 12//12
f 9//9 4//4 14//14
f 14//14 4//4 18//18
f 23//23 30//30 19//19
f 12//12 20//20 21//21
f 15//15 8//8 23//23
f 15//15 23//23 22//22
f 49//49 25//25 10//10
f 24//24 25//25 49//49
f 8//8 10//10 25//25
f 2//2 8//8 25//25
f 8//8 2//2 26//26
f 26//26 2//2 1//1
f 26//26 1//1 24//24
f 24//24 1//1 2//2
f 24//24 2//2 25//25
f 8//8 26//26 27//27
f 8//8 27//27 23//23
f 23//23 28//28 29//29
f 27//27 28//28 23//23
f 30//30 23//23 29//29
f 30//30 29//29 31//31
f 31//31 28//28 32//32
f 32//32 28//28 27//27
f 32//32 27//27 33//33
f 30//30 31//31 32//32
f 30//30 32//32 33//33
f 30//30 33//33 19//19
f 19//19 33//33 34//34
f 19//19 34//34 11//11
f 11//11 34//34 4//4
f 6//6 35//35 18//18
f 5//5 4//4 34//34
f 35//35 6//6 34//34
f 34//34 6//6 5//5
f 4//4 6//6 18//18
f 18//18 35//35 36//36
f 18//18 36//36 37//37
f 18//18 37//37 38//38
f 37//37 39//39 40//40
f 37//37 40//40 38//38
f 38//38 40//40 14//14
f 38//38 14//14 18//18
f 9//9 39//39 5//5
f 3//3 14//14 40//40
f 14//14 3//3 6//6
f 39//39 3//3 40//40
f 9//9 14//14 3//3
f 9//9 3//3 39//39
f 41//41 22//22 5//5
f 22//22 41//41 15//15
f 43//43 15//15 41//41
f 15//15 43//43 42//42
f 15//15 42//42 16//16
f 44//44 16//16 42//42
f 44//44 45//45 12//12
f 44//44 12//12 16//16
f 44//44 47//47 46//46
f 44//44 46//46 45//45
f 45//45 46//46 20//20
f 45//45 20//20 12//12
f 47//47 21//21 20//20
f 47//47 20//20 46//46
f 21//21 47//47 48//48
f 21//21 48//48 17//17
f 48//48 7//7 17//17
f 17//17 7//7 13//13
f 13//13 7//7 49//49
f 13//13 49//49 10//10
f 42//42 7//7 44//44
f 44//44 7//7 48//48
f 26//26 49//49 7//7
f 44//44 48//48 47//47
f 33//33 27//27 41//41
f 26//26 24//24 49//49
f 34//34 33//33 41//41
f 42//42 43//43 7//7
f 7//7 43//43 26//26
f 34//34 41//41 5//5
f 34//34 5//5 35//35
f 35//35 5//5 39//39
f 35//35 39//39 36//36
f 37//37 36//36 39//39
f 41//41 27//27 26//26
f 41//41 26//26 43//43
# 104 faces, 0 coords texture

# End of File
