####
#
# OBJ File Generated by Meshlab
#
####
# Object robotiq_arg2f_85_inner_finger.obj
#
# Vertices: 27
# Faces: 50
#
####
vn 0.663217 -0.520070 0.538210
v 7.000000 -18.903099 44.514599
vn -0.700268 0.319992 0.638146
v -7.000000 -13.903100 44.514900
vn -0.862687 -0.358887 0.356330
v -7.000000 -18.903099 44.514599
vn 0.691411 0.531012 0.489876
v 7.000000 -13.903100 44.514900
vn -0.370697 -0.926068 0.070574
v -7.000000 -23.901800 13.514400
vn 0.385441 -0.919022 0.082669
v 7.000000 -23.901800 13.514400
vn -0.402161 0.844733 0.353118
v -7.000000 5.563000 2.247890
vn 0.465892 0.872386 0.147944
v 7.006810 6.231469 0.795478
vn 0.351484 -0.174913 -0.919709
v 7.000025 -0.320063 -6.267280
vn -0.582395 -0.175620 -0.793709
v -7.000010 -1.713949 -5.761183
vn 0.255548 -0.513251 -0.819310
v 7.000078 -20.817352 1.191341
vn -0.256328 -0.416907 -0.872058
v -6.999999 -20.555904 1.095840
vn 0.820233 -0.399056 -0.409845
v 7.500214 -22.809305 3.001374
vn -0.533138 -0.840205 -0.099090
v -7.001404 -23.899984 5.866092
vn -0.733548 0.676467 -0.065569
v -7.498438 6.136896 -0.213935
vn -0.989309 -0.145705 0.006054
v -7.500399 -22.904367 6.900443
vn -0.977824 0.184142 0.099755
v -7.500129 3.675967 3.970542
vn -0.595202 -0.629029 -0.500058
v -7.493377 -22.890177 3.006002
vn -0.999936 -0.001949 0.011158
v -7.500050 -17.562832 11.697462
vn -0.959036 0.031287 -0.281551
v -7.500062 0.157460 -5.373586
vn -0.399666 0.191153 -0.896509
v -7.002510 1.489029 -5.988065
vn 0.984524 0.164155 0.061368
v 7.499862 3.660532 3.995067
vn 0.681344 -0.723228 -0.112741
v 7.404077 -23.892120 5.348416
vn 0.999920 -0.010592 0.006981
v 7.499914 -19.975666 11.487415
vn 0.510671 0.328889 -0.794385
v 7.514401 2.033124 -5.893650
vn 0.850877 0.473149 -0.228338
v 7.499794 4.950313 -3.468038
vn -0.476290 0.629145 -0.614268
v -7.007318 4.772376 -3.728298
# 27 vertices, 0 vertices normals

f 2//2 19//19 3//3
f 22//22 8//8 4//4
f 1//1 24//24 4//4
f 23//23 1//1 6//6
f 10//10 18//18 20//20
f 12//12 18//18 10//10
f 24//24 22//22 4//4
f 9//9 13//13 11//11
f 14//14 5//5 16//16
f 17//17 7//7 15//15
f 7//7 17//17 2//2
f 17//17 19//19 2//2
f 19//19 16//16 3//3
f 10//10 20//20 21//21
f 3//3 16//16 5//5
f 25//25 13//13 9//9
f 23//23 24//24 1//1
f 20//20 15//15 27//27
f 21//21 20//20 27//27
f 3//3 1//1 2//2
f 2//2 1//1 4//4
f 5//5 1//1 3//3
f 1//1 5//5 6//6
f 7//7 2//2 4//4
f 8//8 7//7 4//4
f 9//9 10//10 21//21
f 10//10 9//9 12//12
f 12//12 9//9 11//11
f 7//7 8//8 15//15
f 5//5 23//23 6//6
f 14//14 23//23 5//5
f 11//11 18//18 12//12
f 23//23 18//18 13//13
f 14//14 18//18 23//23
f 13//13 18//18 11//11
f 20//20 16//16 15//15
f 19//19 17//17 16//16
f 18//18 16//16 20//20
f 17//17 15//15 16//16
f 14//14 16//16 18//18
f 25//25 21//21 27//27
f 27//27 15//15 26//26
f 8//8 26//26 15//15
f 24//24 26//26 22//22
f 25//25 26//26 13//13
f 8//8 22//22 26//26
f 23//23 26//26 24//24
f 13//13 26//26 23//23
f 9//9 21//21 25//25
f 27//27 26//26 25//25
# 50 faces, 0 coords texture

# End of File
